<svg width="1057" height="357" viewBox="0 0 1057 357" fill="none" xmlns="http://www.w3.org/2000/svg">
<g clip-path="url(#clip0_27_2)">
<path d="M100.939 112.142C100.465 108.863 97.4216 106.589 94.1422 107.062C90.9654 107.522 88.732 110.391 89.026 113.552L89.0621 113.859V113.861C89.0625 113.864 89.0633 113.868 89.0641 113.873C89.0656 113.884 89.0686 113.902 89.0719 113.925C89.0785 113.971 89.0889 114.042 89.1021 114.137C89.1289 114.326 89.1685 114.61 89.2193 114.981C89.3211 115.723 89.4671 116.814 89.6441 118.192C89.9984 120.95 90.4745 124.86 90.9605 129.45C91.9358 138.66 92.9384 150.493 93.0924 161.24C93.3852 181.678 90.6207 208.193 93.8941 213.573C97.5 219.5 107.275 224.412 113.383 235.027C119.507 245.669 122 259.88 122 264.5C122 267 122.772 270.751 126 271.5C129.228 272.249 132.25 270.727 133 267.5C135.878 255.103 130.394 240.529 123.784 229.042C119.893 222.281 115.025 215.846 109.94 210.841C131.345 203.846 148.312 190.871 160.452 176.119C174.724 158.776 182.657 138.564 183 122.084C183.068 118.771 180.438 116.03 177.126 115.961C173.813 115.892 171.07 118.522 171.002 121.835C170.727 135.059 164.138 152.755 151.186 168.494C141.902 179.775 129.518 189.835 114.248 196.4C119.372 187.87 123.318 177.893 126.21 167.936C131.398 150.071 133.594 130.891 132.61 117.074C132.374 113.769 129.504 111.281 126.199 111.516C122.893 111.752 120.405 114.622 120.64 117.928C121.506 130.076 119.556 147.821 114.686 164.59C111.91 174.148 108.308 182.959 104.022 190.122C104.657 180.865 105.216 169.862 105.09 161.068C104.929 149.792 103.885 137.548 102.894 128.187C102.397 123.493 101.91 119.492 101.546 116.663C101.365 115.248 101.214 114.124 101.108 113.351C101.055 112.965 101.013 112.667 100.984 112.463L100.951 112.228L100.942 112.167C100.941 112.16 100.941 112.154 100.94 112.15L100.939 112.145V112.142C100.939 112.142 100.834 112.158 95.2848 112.96L100.939 112.142Z" fill="#A0232F"/>
</g>
<path d="M479.529 73.6348C479.928 73.6348 480.209 73.7285 480.373 73.916C480.549 74.0918 480.637 74.3965 480.637 74.8301C480.637 75.2637 480.549 75.5742 480.373 75.7617C480.209 75.9375 479.928 76.0254 479.529 76.0254H478.527V93.8496C478.527 94.166 478.416 94.418 478.193 94.6055C477.982 94.793 477.654 94.8867 477.209 94.8867C476.588 94.8867 476.096 94.5645 475.732 93.9199L466.609 77.625H466.539V92.1094H469.018C469.416 92.1094 469.697 92.2031 469.861 92.3906C470.037 92.5664 470.125 92.8711 470.125 93.3047C470.125 93.7383 470.037 94.0488 469.861 94.2363C469.697 94.4121 469.416 94.5 469.018 94.5H462.795C462.396 94.5 462.109 94.4121 461.934 94.2363C461.77 94.0488 461.688 93.7383 461.688 93.3047C461.688 92.8711 461.77 92.5664 461.934 92.3906C462.109 92.2031 462.396 92.1094 462.795 92.1094H463.973V76.0254H462.619C462.221 76.0254 461.934 75.9375 461.758 75.7617C461.594 75.5742 461.512 75.2637 461.512 74.8301C461.512 74.3965 461.594 74.0918 461.758 73.916C461.934 73.7285 462.221 73.6348 462.619 73.6348H466.557C466.814 73.6348 467.02 73.6758 467.172 73.7578C467.336 73.8398 467.465 73.9629 467.559 74.127L475.891 89.0332H475.961V76.0254H473.834C473.436 76.0254 473.148 75.9375 472.973 75.7617C472.809 75.5742 472.727 75.2637 472.727 74.8301C472.727 74.3965 472.809 74.0918 472.973 73.916C473.148 73.7285 473.436 73.6348 473.834 73.6348H479.529ZM492.73 77.8711C494.934 77.8711 496.586 78.3633 497.688 79.3477C498.789 80.332 499.34 81.791 499.34 83.7246V90.7207C499.34 91.6465 499.727 92.1094 500.5 92.1094H501.115C501.514 92.1094 501.795 92.2031 501.959 92.3906C502.135 92.5664 502.223 92.8711 502.223 93.3047C502.223 93.7383 502.135 94.0488 501.959 94.2363C501.795 94.4121 501.514 94.5 501.115 94.5H499.99C499.229 94.5 498.572 94.3125 498.021 93.9375C497.482 93.5508 497.131 92.9883 496.967 92.25C496.006 93.0938 494.963 93.7441 493.838 94.2012C492.725 94.6582 491.541 94.8867 490.287 94.8867C489.104 94.8867 488.055 94.6875 487.141 94.2891C486.238 93.8789 485.529 93.2871 485.014 92.5137C484.498 91.7402 484.24 90.8203 484.24 89.7539C484.24 87.9023 484.902 86.5371 486.227 85.6582C487.551 84.7676 489.262 84.3223 491.359 84.3223C493.223 84.3223 495.004 84.6211 496.703 85.2188V83.7246C496.703 82.5879 496.381 81.7559 495.736 81.2285C495.104 80.6895 494.078 80.4199 492.66 80.4199C491.781 80.4199 490.867 80.543 489.918 80.7891C488.969 81.0352 488.066 81.375 487.211 81.8086C487.012 81.9141 486.83 81.9668 486.666 81.9668C486.279 81.9668 485.957 81.6855 485.699 81.123C485.57 80.8418 485.506 80.6074 485.506 80.4199C485.506 80.0098 485.723 79.6934 486.156 79.4707C487.141 78.9551 488.195 78.5625 489.32 78.293C490.457 78.0117 491.594 77.8711 492.73 77.8711ZM491.377 86.8008C490.029 86.8008 488.963 87.0352 488.178 87.5039C487.404 87.9609 487.018 88.6934 487.018 89.7012C487.018 90.5566 487.311 91.2246 487.896 91.7051C488.494 92.1738 489.326 92.4082 490.393 92.4082C492.725 92.4082 494.828 91.4414 496.703 89.5078V87.5918C495.906 87.334 495.051 87.1406 494.137 87.0117C493.223 86.8711 492.303 86.8008 491.377 86.8008ZM519.625 77.8711C520.539 77.8711 521.395 78.1055 522.191 78.5742C522.66 78.8555 522.895 79.2188 522.895 79.6641C522.895 79.875 522.842 80.1211 522.736 80.4023C522.49 81.0703 522.15 81.4043 521.717 81.4043C521.541 81.4043 521.377 81.3574 521.225 81.2637C520.65 80.9473 520.035 80.7891 519.379 80.7891C518.324 80.7891 517.264 81.1582 516.197 81.8965C515.131 82.623 514.252 83.5957 513.561 84.8145C512.881 86.0332 512.541 87.3281 512.541 88.6992V92.1094H518.465C518.863 92.1094 519.145 92.2031 519.309 92.3906C519.484 92.5664 519.572 92.8711 519.572 93.3047C519.572 93.7383 519.484 94.0488 519.309 94.2363C519.145 94.4121 518.863 94.5 518.465 94.5H507.145C506.746 94.5 506.459 94.4121 506.283 94.2363C506.119 94.0488 506.037 93.7383 506.037 93.3047C506.037 92.8711 506.119 92.5664 506.283 92.3906C506.459 92.2031 506.746 92.1094 507.145 92.1094H509.904V80.6484H507.672C507.273 80.6484 506.986 80.5605 506.811 80.3848C506.646 80.1973 506.564 79.8867 506.564 79.4531C506.564 79.0195 506.646 78.7148 506.811 78.5391C506.986 78.3516 507.273 78.2578 507.672 78.2578H511.258C511.656 78.2578 511.938 78.3516 512.102 78.5391C512.277 78.7148 512.365 79.0195 512.365 79.4531V83.0039C512.928 81.9727 513.607 81.0703 514.404 80.2969C515.201 79.5234 516.051 78.9258 516.953 78.5039C517.855 78.082 518.746 77.8711 519.625 77.8711ZM542.213 78.2578C542.611 78.2578 542.893 78.3516 543.057 78.5391C543.232 78.7148 543.32 79.0195 543.32 79.4531C543.32 79.793 543.232 80.0625 543.057 80.2617L532.334 92.1094H540.859V89.0859C540.859 88.6758 540.959 88.3828 541.158 88.207C541.357 88.0312 541.697 87.9434 542.178 87.9434C542.658 87.9434 542.998 88.0312 543.197 88.207C543.396 88.3828 543.496 88.6758 543.496 89.0859V93.3047C543.496 93.7383 543.408 94.0488 543.232 94.2363C543.068 94.4121 542.787 94.5 542.389 94.5H529.275C528.877 94.5 528.59 94.4121 528.414 94.2363C528.25 94.0488 528.168 93.7383 528.168 93.3047C528.168 92.9531 528.25 92.6895 528.414 92.5137L539.154 80.6484H531.156V83.2676C531.156 83.6777 531.057 83.9707 530.857 84.1465C530.658 84.3223 530.318 84.4102 529.838 84.4102C529.357 84.4102 529.018 84.3223 528.818 84.1465C528.619 83.9707 528.52 83.6777 528.52 83.2676V79.4531C528.52 79.0195 528.602 78.7148 528.766 78.5391C528.941 78.3516 529.229 78.2578 529.627 78.2578H542.213ZM557.576 77.8711C559.275 77.8711 560.723 78.2168 561.918 78.9082C563.125 79.5879 564.051 80.5371 564.695 81.7559C565.34 82.9629 565.709 84.3574 565.803 85.9395C565.803 86.3379 565.715 86.6191 565.539 86.7832C565.375 86.9473 565.094 87.0293 564.695 87.0293H551.969C552.051 88.7754 552.566 90.0996 553.516 91.002C554.477 91.8926 555.83 92.3379 557.576 92.3379C558.654 92.3379 559.721 92.2031 560.775 91.9336C561.83 91.6523 562.756 91.2832 563.553 90.8262C563.752 90.7207 563.934 90.668 564.098 90.668C564.508 90.668 564.842 90.9785 565.1 91.5996C565.205 91.8457 565.258 92.0684 565.258 92.2676C565.258 92.7363 565 93.0996 564.484 93.3574C564.168 93.5098 563.652 93.9199 562.938 94.5879C561.93 95.5371 561.203 96.3691 560.758 97.084C560.324 97.7988 560.107 98.4668 560.107 99.0879C560.107 99.5098 560.23 99.832 560.477 100.055C560.723 100.289 561.051 100.406 561.461 100.406C562.105 100.406 562.768 100.348 563.447 100.23C563.729 100.184 563.951 100.26 564.115 100.459C564.279 100.67 564.361 101.004 564.361 101.461C564.361 101.695 564.309 101.883 564.203 102.023C564.109 102.164 563.963 102.27 563.764 102.34C562.885 102.645 561.924 102.797 560.881 102.797C559.791 102.797 558.93 102.492 558.297 101.883C557.676 101.273 557.365 100.459 557.365 99.4395C557.365 98.6074 557.594 97.7988 558.051 97.0137C558.52 96.2402 559.193 95.4551 560.072 94.6582C559.193 94.8105 558.361 94.8867 557.576 94.8867C555.807 94.8867 554.295 94.5469 553.041 93.8672C551.787 93.1875 550.832 92.209 550.176 90.9316C549.52 89.6543 549.191 88.1367 549.191 86.3789C549.191 84.7031 549.549 83.2207 550.264 81.9316C550.979 80.6426 551.969 79.6465 553.234 78.9434C554.5 78.2285 555.947 77.8711 557.576 77.8711ZM557.576 80.4199C556.135 80.4199 554.939 80.7891 553.99 81.5273C553.053 82.2539 552.438 83.2676 552.145 84.5684H562.885C562.639 83.2207 562.07 82.1953 561.18 81.4922C560.301 80.7773 559.1 80.4199 557.576 80.4199ZM585.139 71.4375C585.537 71.4375 585.818 71.5312 585.982 71.7188C586.158 71.8945 586.246 72.1992 586.246 72.6328V92.1094H587.688C588.086 92.1094 588.367 92.2031 588.531 92.3906C588.707 92.5664 588.795 92.8711 588.795 93.3047C588.795 93.7383 588.707 94.0488 588.531 94.2363C588.367 94.4121 588.086 94.5 587.688 94.5H584.893C584.494 94.5 584.207 94.4121 584.031 94.2363C583.867 94.0488 583.785 93.7383 583.785 93.3047V91.8984C583.047 92.8594 582.191 93.5977 581.219 94.1133C580.246 94.6289 579.186 94.8867 578.037 94.8867C576.584 94.8867 575.283 94.5469 574.135 93.8672C572.986 93.1758 572.084 92.1914 571.428 90.9141C570.771 89.625 570.443 88.1133 570.443 86.3789C570.443 84.6445 570.771 83.1387 571.428 81.8613C572.084 80.5723 572.986 79.5879 574.135 78.9082C575.283 78.2168 576.584 77.8711 578.037 77.8711C580.24 77.8711 582.098 78.8379 583.609 80.7715V73.8281H580.762C580.363 73.8281 580.076 73.7402 579.9 73.5645C579.736 73.377 579.654 73.0664 579.654 72.6328C579.654 72.1992 579.736 71.8945 579.9 71.7188C580.076 71.5312 580.363 71.4375 580.762 71.4375H585.139ZM578.213 80.4727C577.17 80.4727 576.273 80.7246 575.523 81.2285C574.773 81.7207 574.199 82.4121 573.801 83.3027C573.414 84.1934 573.221 85.2188 573.221 86.3789C573.221 87.5391 573.414 88.5645 573.801 89.4551C574.199 90.3457 574.773 91.043 575.523 91.5469C576.273 92.0391 577.17 92.2852 578.213 92.2852C579.256 92.2852 580.182 92.0508 580.99 91.582C581.811 91.1133 582.449 90.4336 582.906 89.543C583.375 88.6523 583.609 87.5977 583.609 86.3789C583.609 85.1602 583.375 84.1055 582.906 83.2148C582.449 82.3242 581.811 81.6445 580.99 81.1758C580.182 80.707 579.256 80.4727 578.213 80.4727ZM606.971 78.2578C607.369 78.2578 607.65 78.3516 607.814 78.5391C607.99 78.7148 608.078 79.0195 608.078 79.4531C608.078 79.793 607.99 80.0625 607.814 80.2617L597.092 92.1094H605.617V89.0859C605.617 88.6758 605.717 88.3828 605.916 88.207C606.115 88.0312 606.455 87.9434 606.936 87.9434C607.416 87.9434 607.756 88.0312 607.955 88.207C608.154 88.3828 608.254 88.6758 608.254 89.0859V93.3047C608.254 93.7383 608.166 94.0488 607.99 94.2363C607.826 94.4121 607.545 94.5 607.146 94.5H594.033C593.635 94.5 593.348 94.4121 593.172 94.2363C593.008 94.0488 592.926 93.7383 592.926 93.3047C592.926 92.9531 593.008 92.6895 593.172 92.5137L603.912 80.6484H595.914V83.2676C595.914 83.6777 595.814 83.9707 595.615 84.1465C595.416 84.3223 595.076 84.4102 594.596 84.4102C594.115 84.4102 593.775 84.3223 593.576 84.1465C593.377 83.9707 593.277 83.6777 593.277 83.2676V79.4531C593.277 79.0195 593.359 78.7148 593.523 78.5391C593.699 78.3516 593.986 78.2578 594.385 78.2578H606.971ZM622.809 78.2578C623.207 78.2578 623.488 78.3516 623.652 78.5391C623.828 78.7148 623.916 79.0195 623.916 79.4531V92.1094H629.559C629.957 92.1094 630.238 92.2031 630.402 92.3906C630.578 92.5664 630.666 92.8711 630.666 93.3047C630.666 93.7383 630.578 94.0488 630.402 94.2363C630.238 94.4121 629.957 94.5 629.559 94.5H615.777C615.379 94.5 615.092 94.4121 614.916 94.2363C614.752 94.0488 614.67 93.7383 614.67 93.3047C614.67 92.8711 614.752 92.5664 614.916 92.3906C615.092 92.2031 615.379 92.1094 615.777 92.1094H621.279V80.6484H616.832C616.434 80.6484 616.146 80.5605 615.971 80.3848C615.807 80.1973 615.725 79.8867 615.725 79.4531C615.725 79.0195 615.807 78.7148 615.971 78.5391C616.146 78.3516 616.434 78.2578 616.832 78.2578H622.809ZM622.246 70.541C622.891 70.541 623.33 70.6289 623.564 70.8047C623.799 70.9688 623.916 71.2617 623.916 71.6836V73.9688C623.916 74.3906 623.799 74.6895 623.564 74.8652C623.33 75.0293 622.891 75.1113 622.246 75.1113C621.602 75.1113 621.162 75.0293 620.928 74.8652C620.693 74.6895 620.576 74.3906 620.576 73.9688V71.6836C620.576 71.2617 620.693 70.9688 620.928 70.8047C621.162 70.6289 621.602 70.541 622.246 70.541ZM643.92 77.8711C645.619 77.8711 647.066 78.2168 648.262 78.9082C649.469 79.5879 650.395 80.5371 651.039 81.7559C651.684 82.9629 652.053 84.3574 652.146 85.9395C652.146 86.3379 652.059 86.6191 651.883 86.7832C651.719 86.9473 651.438 87.0293 651.039 87.0293H638.312C638.395 88.7754 638.91 90.0996 639.859 91.002C640.82 91.8926 642.174 92.3379 643.92 92.3379C644.998 92.3379 646.064 92.2031 647.119 91.9336C648.174 91.6523 649.1 91.2832 649.896 90.8262C650.096 90.7207 650.277 90.668 650.441 90.668C650.852 90.668 651.186 90.9785 651.443 91.5996C651.549 91.8457 651.602 92.0684 651.602 92.2676C651.602 92.7363 651.344 93.0996 650.828 93.3574C649.926 93.8145 648.859 94.1836 647.629 94.4648C646.398 94.7461 645.162 94.8867 643.92 94.8867C642.15 94.8867 640.639 94.5469 639.385 93.8672C638.131 93.1875 637.176 92.209 636.52 90.9316C635.863 89.6543 635.535 88.1367 635.535 86.3789C635.535 84.7031 635.893 83.2207 636.607 81.9316C637.322 80.6426 638.312 79.6465 639.578 78.9434C640.844 78.2285 642.291 77.8711 643.92 77.8711ZM643.92 80.4199C642.479 80.4199 641.283 80.7891 640.334 81.5273C639.396 82.2539 638.781 83.2676 638.488 84.5684H649.229C648.982 83.2207 648.414 82.1953 647.523 81.4922C646.645 80.7773 645.443 80.4199 643.92 80.4199ZM693.068 71.4375C693.467 71.4375 693.748 71.5312 693.912 71.7188C694.088 71.8945 694.176 72.1992 694.176 72.6328V92.1094H695.617C696.016 92.1094 696.297 92.2031 696.461 92.3906C696.637 92.5664 696.725 92.8711 696.725 93.3047C696.725 93.7383 696.637 94.0488 696.461 94.2363C696.297 94.4121 696.016 94.5 695.617 94.5H692.822C692.424 94.5 692.137 94.4121 691.961 94.2363C691.797 94.0488 691.715 93.7383 691.715 93.3047V91.8984C690.977 92.8594 690.121 93.5977 689.148 94.1133C688.176 94.6289 687.115 94.8867 685.967 94.8867C684.514 94.8867 683.213 94.5469 682.064 93.8672C680.916 93.1758 680.014 92.1914 679.357 90.9141C678.701 89.625 678.373 88.1133 678.373 86.3789C678.373 84.6445 678.701 83.1387 679.357 81.8613C680.014 80.5723 680.916 79.5879 682.064 78.9082C683.213 78.2168 684.514 77.8711 685.967 77.8711C688.17 77.8711 690.027 78.8379 691.539 80.7715V73.8281H688.691C688.293 73.8281 688.006 73.7402 687.83 73.5645C687.666 73.377 687.584 73.0664 687.584 72.6328C687.584 72.1992 687.666 71.8945 687.83 71.7188C688.006 71.5312 688.293 71.4375 688.691 71.4375H693.068ZM686.143 80.4727C685.1 80.4727 684.203 80.7246 683.453 81.2285C682.703 81.7207 682.129 82.4121 681.73 83.3027C681.344 84.1934 681.15 85.2188 681.15 86.3789C681.15 87.5391 681.344 88.5645 681.73 89.4551C682.129 90.3457 682.703 91.043 683.453 91.5469C684.203 92.0391 685.1 92.2852 686.143 92.2852C687.186 92.2852 688.111 92.0508 688.92 91.582C689.74 91.1133 690.379 90.4336 690.836 89.543C691.305 88.6523 691.539 87.5977 691.539 86.3789C691.539 85.1602 691.305 84.1055 690.836 83.2148C690.379 82.3242 689.74 81.6445 688.92 81.1758C688.111 80.707 687.186 80.4727 686.143 80.4727ZM708.977 71.4375C709.375 71.4375 709.656 71.5312 709.82 71.7188C709.996 71.8945 710.084 72.1992 710.084 72.6328V92.1094H715.727C716.125 92.1094 716.406 92.2031 716.57 92.3906C716.746 92.5664 716.834 92.8711 716.834 93.3047C716.834 93.7383 716.746 94.0488 716.57 94.2363C716.406 94.4121 716.125 94.5 715.727 94.5H701.945C701.547 94.5 701.26 94.4121 701.084 94.2363C700.92 94.0488 700.838 93.7383 700.838 93.3047C700.838 92.8711 700.92 92.5664 701.084 92.3906C701.26 92.2031 701.547 92.1094 701.945 92.1094H707.447V73.8281H702.648C702.25 73.8281 701.963 73.7402 701.787 73.5645C701.623 73.377 701.541 73.0664 701.541 72.6328C701.541 72.1992 701.623 71.8945 701.787 71.7188C701.963 71.5312 702.25 71.4375 702.648 71.4375H708.977ZM730.176 77.8711C732.379 77.8711 734.031 78.3633 735.133 79.3477C736.234 80.332 736.785 81.791 736.785 83.7246V90.7207C736.785 91.6465 737.172 92.1094 737.945 92.1094H738.561C738.959 92.1094 739.24 92.2031 739.404 92.3906C739.58 92.5664 739.668 92.8711 739.668 93.3047C739.668 93.7383 739.58 94.0488 739.404 94.2363C739.24 94.4121 738.959 94.5 738.561 94.5H737.436C736.674 94.5 736.018 94.3125 735.467 93.9375C734.928 93.5508 734.576 92.9883 734.412 92.25C733.451 93.0938 732.408 93.7441 731.283 94.2012C730.17 94.6582 728.986 94.8867 727.732 94.8867C726.549 94.8867 725.5 94.6875 724.586 94.2891C723.684 93.8789 722.975 93.2871 722.459 92.5137C721.943 91.7402 721.686 90.8203 721.686 89.7539C721.686 87.9023 722.348 86.5371 723.672 85.6582C724.996 84.7676 726.707 84.3223 728.805 84.3223C730.668 84.3223 732.449 84.6211 734.148 85.2188V83.7246C734.148 82.5879 733.826 81.7559 733.182 81.2285C732.549 80.6895 731.523 80.4199 730.105 80.4199C729.227 80.4199 728.312 80.543 727.363 80.7891C726.414 81.0352 725.512 81.375 724.656 81.8086C724.457 81.9141 724.275 81.9668 724.111 81.9668C723.725 81.9668 723.402 81.6855 723.145 81.123C723.016 80.8418 722.951 80.6074 722.951 80.4199C722.951 80.0098 723.168 79.6934 723.602 79.4707C724.586 78.9551 725.641 78.5625 726.766 78.293C727.902 78.0117 729.039 77.8711 730.176 77.8711ZM728.822 86.8008C727.475 86.8008 726.408 87.0352 725.623 87.5039C724.85 87.9609 724.463 88.6934 724.463 89.7012C724.463 90.5566 724.756 91.2246 725.342 91.7051C725.939 92.1738 726.771 92.4082 727.838 92.4082C730.17 92.4082 732.273 91.4414 734.148 89.5078V87.5918C733.352 87.334 732.496 87.1406 731.582 87.0117C730.668 86.8711 729.748 86.8008 728.822 86.8008ZM770.535 73.248C771.016 73.248 771.355 73.3359 771.555 73.5117C771.754 73.6875 771.854 73.9805 771.854 74.3906V79.6641H779.078C779.477 79.6641 779.758 79.7578 779.922 79.9453C780.098 80.1211 780.186 80.4258 780.186 80.8594C780.186 81.293 780.098 81.6035 779.922 81.791C779.758 81.9668 779.477 82.0547 779.078 82.0547H771.854V88.4531C771.854 89.7891 772.082 90.7676 772.539 91.3887C773.008 92.0098 773.816 92.3203 774.965 92.3203C775.75 92.3203 776.576 92.1621 777.443 91.8457C778.311 91.5293 779.148 91.1074 779.957 90.5801C780.121 90.4629 780.303 90.4043 780.502 90.4043C780.9 90.4043 781.24 90.6738 781.521 91.2129C781.674 91.5176 781.75 91.7812 781.75 92.0039C781.75 92.3789 781.557 92.6836 781.17 92.918C780.256 93.4922 779.236 93.9668 778.111 94.3418C776.986 94.7051 775.938 94.8867 774.965 94.8867C772.973 94.8867 771.514 94.3711 770.588 93.3398C769.674 92.2969 769.217 90.7441 769.217 88.6816V82.0547H765.648C765.25 82.0547 764.963 81.9668 764.787 81.791C764.623 81.6035 764.541 81.293 764.541 80.8594C764.541 80.4258 764.623 80.1211 764.787 79.9453C764.963 79.7578 765.25 79.6641 765.648 79.6641H769.217V74.3906C769.217 73.9805 769.316 73.6875 769.516 73.5117C769.715 73.3359 770.055 73.248 770.535 73.248ZM795.021 77.8711C796.721 77.8711 798.168 78.2168 799.363 78.9082C800.57 79.5879 801.496 80.5371 802.141 81.7559C802.785 82.9629 803.154 84.3574 803.248 85.9395C803.248 86.3379 803.16 86.6191 802.984 86.7832C802.82 86.9473 802.539 87.0293 802.141 87.0293H789.414C789.496 88.7754 790.012 90.0996 790.961 91.002C791.922 91.8926 793.275 92.3379 795.021 92.3379C796.1 92.3379 797.166 92.2031 798.221 91.9336C799.275 91.6523 800.201 91.2832 800.998 90.8262C801.197 90.7207 801.379 90.668 801.543 90.668C801.953 90.668 802.287 90.9785 802.545 91.5996C802.65 91.8457 802.703 92.0684 802.703 92.2676C802.703 92.7363 802.445 93.0996 801.93 93.3574C801.027 93.8145 799.961 94.1836 798.73 94.4648C797.5 94.7461 796.264 94.8867 795.021 94.8867C793.252 94.8867 791.74 94.5469 790.486 93.8672C789.232 93.1875 788.277 92.209 787.621 90.9316C786.965 89.6543 786.637 88.1367 786.637 86.3789C786.637 84.7031 786.994 83.2207 787.709 81.9316C788.424 80.6426 789.414 79.6465 790.68 78.9434C791.945 78.2285 793.393 77.8711 795.021 77.8711ZM795.021 80.4199C793.58 80.4199 792.385 80.7891 791.436 81.5273C790.498 82.2539 789.883 83.2676 789.59 84.5684H800.33C800.084 83.2207 799.516 82.1953 798.625 81.4922C797.746 80.7773 796.545 80.4199 795.021 80.4199ZM816.52 77.8711C818.723 77.8711 820.375 78.3633 821.477 79.3477C822.578 80.332 823.129 81.791 823.129 83.7246V90.7207C823.129 91.6465 823.516 92.1094 824.289 92.1094H824.904C825.303 92.1094 825.584 92.2031 825.748 92.3906C825.924 92.5664 826.012 92.8711 826.012 93.3047C826.012 93.7383 825.924 94.0488 825.748 94.2363C825.584 94.4121 825.303 94.5 824.904 94.5H823.779C823.018 94.5 822.361 94.3125 821.811 93.9375C821.271 93.5508 820.92 92.9883 820.756 92.25C819.795 93.0938 818.752 93.7441 817.627 94.2012C816.514 94.6582 815.33 94.8867 814.076 94.8867C812.893 94.8867 811.844 94.6875 810.93 94.2891C810.027 93.8789 809.318 93.2871 808.803 92.5137C808.287 91.7402 808.029 90.8203 808.029 89.7539C808.029 87.9023 808.691 86.5371 810.016 85.6582C811.34 84.7676 813.051 84.3223 815.148 84.3223C817.012 84.3223 818.793 84.6211 820.492 85.2188V83.7246C820.492 82.5879 820.17 81.7559 819.525 81.2285C818.893 80.6895 817.867 80.4199 816.449 80.4199C815.57 80.4199 814.656 80.543 813.707 80.7891C812.758 81.0352 811.855 81.375 811 81.8086C810.801 81.9141 810.619 81.9668 810.455 81.9668C810.068 81.9668 809.746 81.6855 809.488 81.123C809.359 80.8418 809.295 80.6074 809.295 80.4199C809.295 80.0098 809.512 79.6934 809.945 79.4707C810.93 78.9551 811.984 78.5625 813.109 78.293C814.246 78.0117 815.383 77.8711 816.52 77.8711ZM815.166 86.8008C813.818 86.8008 812.752 87.0352 811.967 87.5039C811.193 87.9609 810.807 88.6934 810.807 89.7012C810.807 90.5566 811.1 91.2246 811.686 91.7051C812.283 92.1738 813.115 92.4082 814.182 92.4082C816.514 92.4082 818.617 91.4414 820.492 89.5078V87.5918C819.695 87.334 818.84 87.1406 817.926 87.0117C817.012 86.8711 816.092 86.8008 815.166 86.8008ZM835.293 73.248C835.773 73.248 836.113 73.3359 836.312 73.5117C836.512 73.6875 836.611 73.9805 836.611 74.3906V79.6641H843.836C844.234 79.6641 844.516 79.7578 844.68 79.9453C844.855 80.1211 844.943 80.4258 844.943 80.8594C844.943 81.293 844.855 81.6035 844.68 81.791C844.516 81.9668 844.234 82.0547 843.836 82.0547H836.611V88.4531C836.611 89.7891 836.84 90.7676 837.297 91.3887C837.766 92.0098 838.574 92.3203 839.723 92.3203C840.508 92.3203 841.334 92.1621 842.201 91.8457C843.068 91.5293 843.906 91.1074 844.715 90.5801C844.879 90.4629 845.061 90.4043 845.26 90.4043C845.658 90.4043 845.998 90.6738 846.279 91.2129C846.432 91.5176 846.508 91.7812 846.508 92.0039C846.508 92.3789 846.314 92.6836 845.928 92.918C845.014 93.4922 843.994 93.9668 842.869 94.3418C841.744 94.7051 840.695 94.8867 839.723 94.8867C837.73 94.8867 836.271 94.3711 835.346 93.3398C834.432 92.2969 833.975 90.7441 833.975 88.6816V82.0547H830.406C830.008 82.0547 829.721 81.9668 829.545 81.791C829.381 81.6035 829.299 81.293 829.299 80.8594C829.299 80.4258 829.381 80.1211 829.545 79.9453C829.721 79.7578 830.008 79.6641 830.406 79.6641H833.975V74.3906C833.975 73.9805 834.074 73.6875 834.273 73.5117C834.473 73.3359 834.812 73.248 835.293 73.248ZM865 77.8711C865.914 77.8711 866.77 78.1055 867.566 78.5742C868.035 78.8555 868.27 79.2188 868.27 79.6641C868.27 79.875 868.217 80.1211 868.111 80.4023C867.865 81.0703 867.525 81.4043 867.092 81.4043C866.916 81.4043 866.752 81.3574 866.6 81.2637C866.025 80.9473 865.41 80.7891 864.754 80.7891C863.699 80.7891 862.639 81.1582 861.572 81.8965C860.506 82.623 859.627 83.5957 858.936 84.8145C858.256 86.0332 857.916 87.3281 857.916 88.6992V92.1094H863.84C864.238 92.1094 864.52 92.2031 864.684 92.3906C864.859 92.5664 864.947 92.8711 864.947 93.3047C864.947 93.7383 864.859 94.0488 864.684 94.2363C864.52 94.4121 864.238 94.5 863.84 94.5H852.52C852.121 94.5 851.834 94.4121 851.658 94.2363C851.494 94.0488 851.412 93.7383 851.412 93.3047C851.412 92.8711 851.494 92.5664 851.658 92.3906C851.834 92.2031 852.121 92.1094 852.52 92.1094H855.279V80.6484H853.047C852.648 80.6484 852.361 80.5605 852.186 80.3848C852.021 80.1973 851.939 79.8867 851.939 79.4531C851.939 79.0195 852.021 78.7148 852.186 78.5391C852.361 78.3516 852.648 78.2578 853.047 78.2578H856.633C857.031 78.2578 857.312 78.3516 857.477 78.5391C857.652 78.7148 857.74 79.0195 857.74 79.4531V83.0039C858.303 81.9727 858.982 81.0703 859.779 80.2969C860.576 79.5234 861.426 78.9258 862.328 78.5039C863.23 78.082 864.121 77.8711 865 77.8711ZM886.867 78.2578C887.266 78.2578 887.547 78.3516 887.711 78.5391C887.887 78.7148 887.975 79.0195 887.975 79.4531V92.1094H889.416C889.814 92.1094 890.096 92.2031 890.26 92.3906C890.436 92.5664 890.523 92.8711 890.523 93.3047C890.523 93.7383 890.436 94.0488 890.26 94.2363C890.096 94.4121 889.814 94.5 889.416 94.5H886.621C886.223 94.5 885.936 94.4121 885.76 94.2363C885.596 94.0605 885.514 93.7559 885.514 93.3223V91.1953C884.74 92.3906 883.832 93.3047 882.789 93.9375C881.758 94.5703 880.645 94.8867 879.449 94.8867C878.383 94.8867 877.457 94.6582 876.672 94.2012C875.887 93.7324 875.283 93.0645 874.861 92.1973C874.439 91.3301 874.229 90.3164 874.229 89.1562V80.6484H872.787C872.389 80.6484 872.102 80.5605 871.926 80.3848C871.762 80.1973 871.68 79.8867 871.68 79.4531C871.68 79.0195 871.762 78.7148 871.926 78.5391C872.102 78.3516 872.389 78.2578 872.787 78.2578H875.758C876.156 78.2578 876.438 78.3516 876.602 78.5391C876.777 78.7148 876.865 79.0195 876.865 79.4531V88.8926C876.865 89.9355 877.105 90.7617 877.586 91.3711C878.066 91.9805 878.775 92.2852 879.713 92.2852C880.709 92.2852 881.635 91.998 882.49 91.4238C883.357 90.8496 884.049 90.0586 884.564 89.0508C885.08 88.043 885.338 86.918 885.338 85.6758V80.6484H882.842C882.443 80.6484 882.156 80.5605 881.98 80.3848C881.816 80.1973 881.734 79.8867 881.734 79.4531C881.734 79.0195 881.816 78.7148 881.98 78.5391C882.156 78.3516 882.443 78.2578 882.842 78.2578H886.867Z" fill="#A1A1A1"/>
<path d="M299.72 168.02C299.72 173.716 298.536 178.58 296.168 182.612C295.08 184.532 293.736 186.228 292.136 187.7C290.6 189.172 288.68 190.42 286.376 191.444C284.2 192.34 281.864 192.916 279.368 193.172V194.708C281.672 194.708 284.008 195.444 286.376 196.916C288.616 198.388 290.376 200.34 291.656 202.772C291.976 203.412 292.232 204.052 292.424 204.692C292.68 205.332 292.904 205.972 293.096 206.612L304.52 252.5H281.96L268.616 204.212H261.32V252.5H238.76V138.26H272.36C275.432 138.26 278.376 138.74 281.192 139.7C284.072 140.596 286.664 141.94 288.968 143.732C291.272 145.588 293.192 147.7 294.728 150.068C296.328 152.436 297.576 155.156 298.472 158.228C299.304 161.364 299.72 164.628 299.72 168.02ZM261.32 183.092H266.6C267.816 183.092 268.968 182.932 270.056 182.612C271.208 182.292 272.264 181.78 273.224 181.076C274.888 179.732 276.072 177.812 276.776 175.316C277.032 174.228 277.16 172.884 277.16 171.284C277.16 167.636 276.232 164.756 274.376 162.644C272.52 160.468 269.928 159.38 266.6 159.38H261.32V183.092ZM383.236 210.452V217.46H324.868C325.252 219.38 325.86 221.172 326.692 222.836C327.588 224.436 328.58 225.812 329.668 226.964C330.884 228.244 332.164 229.3 333.508 230.132C334.852 230.964 336.484 231.604 338.404 232.052C339.236 232.308 340.1 232.5 340.996 232.628C341.956 232.756 342.948 232.82 343.972 232.82C347.044 232.82 349.86 232.308 352.42 231.284C354.98 230.26 357.06 228.82 358.66 226.964C359.044 226.516 359.396 226.036 359.716 225.524C360.036 225.012 360.324 224.5 360.58 223.988H382.564C381.668 227.956 380.356 231.412 378.628 234.356C376.9 237.3 374.98 239.764 372.868 241.748C370.436 244.18 367.684 246.26 364.612 247.988C361.604 249.716 358.308 251.06 354.724 252.02C352.996 252.468 351.204 252.82 349.348 253.076C347.492 253.332 345.604 253.46 343.684 253.46C338.756 253.46 334.276 252.756 330.244 251.348C326.276 249.876 322.724 247.924 319.588 245.492C312.74 240.244 308.036 233.236 305.476 224.468C304.196 220.116 303.556 215.444 303.556 210.452C303.556 205.652 304.228 201.044 305.572 196.628C306.916 192.212 308.804 188.276 311.236 184.82C313.732 181.3 316.644 178.292 319.972 175.796C323.364 173.3 327.076 171.38 331.108 170.036C335.204 168.692 339.46 168.02 343.876 168.02C348.164 168.02 352.356 168.756 356.452 170.228C360.548 171.636 364.164 173.62 367.3 176.18C370.564 178.868 373.38 181.94 375.748 185.396C378.18 188.852 380.036 192.756 381.316 197.108C382.596 201.332 383.236 205.78 383.236 210.452ZM325.252 203.06H362.02C360.996 199.668 359.268 196.756 356.836 194.324C354.468 191.956 351.684 190.292 348.484 189.332C347.652 189.14 346.82 188.98 345.988 188.852C345.156 188.724 344.292 188.66 343.396 188.66C340.132 188.66 336.996 189.524 333.988 191.252C332.9 191.892 331.748 192.788 330.532 193.94C329.38 195.092 328.324 196.532 327.364 198.26C326.468 199.86 325.764 201.46 325.252 203.06ZM412.025 137.3V183.764C412.025 184.468 411.961 185.364 411.833 186.452C411.769 187.54 411.673 188.5 411.545 189.332C411.353 190.292 411.097 191.412 410.777 192.692C410.521 193.972 410.233 195.252 409.913 196.532C409.721 197.172 409.529 197.844 409.337 198.548C409.081 199.252 408.857 199.956 408.665 200.66H410.201C410.521 199.508 410.713 198.772 410.777 198.452C410.905 198.132 411.033 197.78 411.161 197.396C411.289 196.948 411.609 195.988 412.121 194.516C412.569 193.3 413.017 192.18 413.465 191.156C413.913 190.132 414.393 189.044 414.905 187.892C415.161 187.38 415.417 186.868 415.673 186.356C415.929 185.844 416.185 185.332 416.441 184.82L424.985 168.98H446.585L428.537 198.74L448.025 252.5H426.425L414.521 219.572L412.025 223.22V252.5H390.425V137.3H412.025ZM497.638 230.516L493.798 252.5H467.494L451.366 168.98H472.966L479.59 212.66C479.718 213.364 479.846 214.324 479.974 215.54C480.166 216.756 480.326 218.036 480.454 219.38C480.582 220.66 480.678 221.716 480.742 222.548C480.87 224.02 480.966 225.268 481.03 226.292C481.094 227.316 481.158 228.34 481.222 229.364C481.35 230.388 481.446 231.636 481.51 233.108C481.51 234.004 481.51 234.868 481.51 235.7V238.1H483.046V230.324C483.046 229.556 483.078 228.788 483.142 228.02C483.142 227.252 483.142 226.484 483.142 225.716C483.142 224.244 483.174 222.836 483.238 221.492C483.302 220.084 483.462 218.516 483.718 216.788C483.782 216.084 483.846 215.38 483.91 214.676C483.974 213.972 484.07 213.3 484.198 212.66L491.59 168.98H510.886L518.278 212.66C518.47 213.748 518.63 215.028 518.758 216.5C518.886 217.908 519.014 219.476 519.142 221.204C519.27 222.74 519.334 224.244 519.334 225.716C519.334 226.484 519.366 227.252 519.43 228.02C519.43 228.788 519.43 229.556 519.43 230.324V238.1H520.966C520.966 236.5 520.966 235.316 520.966 234.548C521.03 233.78 521.062 232.98 521.062 232.148C521.126 231.252 521.222 229.844 521.35 227.924C521.35 227.092 521.414 226.036 521.542 224.756C521.67 223.412 521.798 222.1 521.926 220.82C522.054 219.476 522.182 218.356 522.31 217.46C522.374 216.628 522.438 215.828 522.502 215.06C522.63 214.228 522.758 213.428 522.886 212.66L529.51 168.98H551.11L534.982 252.5H508.678L504.838 230.516C504.454 228.596 504.134 226.548 503.878 224.372C503.622 222.196 503.366 219.956 503.11 217.652C502.854 215.604 502.63 213.364 502.438 210.932C502.31 208.436 502.246 206.132 502.246 204.02C502.182 202.996 502.15 201.908 502.15 200.756C502.086 199.732 502.054 198.74 502.054 197.78H500.518C500.518 199.316 500.454 201.332 500.326 203.828C500.262 206.324 500.166 208.628 500.038 210.74C499.846 212.404 499.718 213.716 499.654 214.676C499.59 215.636 499.494 216.532 499.366 217.364C499.302 218.132 499.206 219.06 499.078 220.148C498.95 221.172 498.79 222.58 498.598 224.372C498.342 226.548 498.022 228.596 497.638 230.516ZM556.831 252.5V168.98H578.431V252.5H556.831ZM555.679 150.644C555.679 147.892 556.447 145.428 557.983 143.252C558.623 142.228 559.455 141.332 560.479 140.564C561.567 139.796 562.687 139.252 563.839 138.932C565.055 138.548 566.335 138.356 567.679 138.356C568.959 138.356 570.207 138.548 571.423 138.932C572.639 139.252 573.791 139.796 574.879 140.564C576.927 142.1 578.335 144.116 579.103 146.612C579.487 147.892 579.679 149.236 579.679 150.644C579.679 154.164 578.559 157.14 576.319 159.572C574.079 162.004 571.199 163.22 567.679 163.22C564.927 163.22 562.559 162.42 560.575 160.82C559.551 160.052 558.687 159.188 557.983 158.228C557.279 157.204 556.703 155.988 556.255 154.58C555.871 153.364 555.679 152.052 555.679 150.644ZM586.13 252.5V241.94L609.554 189.14H587.09V168.98H637.01V179.54L613.49 232.34H637.97V252.5H586.13ZM663.373 168.98L670.477 213.524C670.669 214.612 670.861 216.148 671.053 218.132C671.309 220.116 671.501 221.812 671.629 223.22C671.757 225.268 671.853 226.964 671.917 228.308C672.045 229.652 672.173 231.348 672.301 233.396C672.301 234.228 672.301 235.028 672.301 235.796V238.1H673.837C673.837 236.436 673.837 235.22 673.837 234.452C673.901 233.684 673.933 232.916 673.933 232.148C673.997 231.38 674.093 230.1 674.221 228.308C674.221 227.476 674.285 226.452 674.413 225.236C674.541 223.956 674.669 222.676 674.797 221.396C674.925 220.116 675.053 219.028 675.181 218.132C675.245 217.364 675.309 216.596 675.373 215.828C675.501 214.996 675.629 214.228 675.757 213.524L683.053 168.98H704.173L682.477 281.3H660.877L668.557 252.5H657.901L641.773 168.98H663.373ZM735.365 148.82V154.388C735.365 161.492 732.517 166.484 726.821 169.364V170.9C729.637 169.62 732.677 168.98 735.941 168.98H751.205V189.14H735.365V228.98C735.365 230.9 736.325 231.86 738.245 231.86H751.205L752.165 252.5H732.965C730.405 252.5 728.101 252.244 726.053 251.732C724.005 251.22 722.213 250.452 720.677 249.428C719.141 248.532 717.861 247.284 716.837 245.684C715.813 244.084 715.045 242.324 714.533 240.404C714.021 238.356 713.765 236.052 713.765 233.492V189.14H706.085V168.98H713.765V148.82H735.365ZM796.265 253.46C791.401 253.46 786.857 252.724 782.633 251.252C778.409 249.716 774.633 247.668 771.305 245.108C767.849 242.548 764.809 239.54 762.185 236.084C759.625 232.628 757.609 228.596 756.137 223.988C754.729 219.764 754.025 215.252 754.025 210.452C754.025 205.844 754.729 201.396 756.137 197.108C757.545 192.82 759.529 188.916 762.089 185.396C764.777 181.748 767.881 178.644 771.401 176.084C774.985 173.524 778.793 171.572 782.825 170.228C784.937 169.524 787.113 168.98 789.353 168.596C791.593 168.212 793.897 168.02 796.265 168.02C800.809 168.02 805.225 168.756 809.513 170.228C813.865 171.7 817.769 173.684 821.225 176.18C824.617 178.74 827.625 181.812 830.249 185.396C832.937 188.916 834.985 192.82 836.393 197.108C837.033 199.22 837.545 201.396 837.929 203.636C838.313 205.876 838.505 208.148 838.505 210.452C838.505 214.292 837.897 218.42 836.681 222.836C835.529 227.252 833.417 231.604 830.345 235.892C827.785 239.476 824.713 242.58 821.129 245.204C817.545 247.828 813.705 249.844 809.609 251.252C807.497 251.956 805.321 252.5 803.081 252.884C800.841 253.268 798.569 253.46 796.265 253.46ZM796.361 232.82C798.473 232.82 800.585 232.468 802.697 231.764C804.873 231.06 806.793 230.004 808.457 228.596C810.569 226.932 812.201 225.14 813.353 223.22C814.569 221.236 815.401 219.412 815.849 217.748C816.169 216.66 816.425 215.54 816.617 214.388C816.809 213.172 816.905 211.956 816.905 210.74C816.905 208.244 816.553 205.908 815.849 203.732C815.145 201.492 814.185 199.444 812.969 197.588C811.881 196.052 810.505 194.58 808.841 193.172C807.177 191.7 805.161 190.548 802.793 189.716C800.681 189.012 798.537 188.66 796.361 188.66C791.753 188.66 787.689 190.036 784.169 192.788C782.505 194.068 781.001 195.668 779.657 197.588C778.313 199.444 777.321 201.46 776.681 203.636C776.361 204.724 776.105 205.876 775.913 207.092C775.721 208.308 775.625 209.524 775.625 210.74C775.625 212.724 775.913 214.836 776.489 217.076C777.065 219.316 778.121 221.556 779.657 223.796C780.873 225.588 782.313 227.156 783.977 228.5C785.641 229.844 787.593 230.9 789.833 231.668C791.945 232.436 794.121 232.82 796.361 232.82ZM845.675 168.98H867.275C867.275 169.684 867.211 170.324 867.083 170.9C866.955 171.412 866.731 172.116 866.411 173.012C866.091 173.972 865.899 174.548 865.835 174.74C865.771 174.932 865.643 175.156 865.451 175.412C865.323 175.604 865.035 176.244 864.587 177.332C864.267 178.036 863.883 178.676 863.435 179.252L864.587 180.212C865.611 178.676 866.603 177.332 867.563 176.18C868.587 175.028 869.867 173.908 871.403 172.82C873.963 171.028 877.035 169.876 880.619 169.364C882.283 169.108 884.203 168.98 886.379 168.98H890.123L889.163 189.62H883.115C878.059 189.62 874.187 190.42 871.499 192.02C868.683 193.748 867.275 196.116 867.275 199.124V252.5H845.675V168.98Z" fill="#0B0B0B"/>
<defs>
<clipPath id="clip0_27_2">
<rect x="60" y="85" width="125" height="187" rx="48" fill="white"/>
</clipPath>
</defs>
</svg>
